<?xml version="1.0" encoding="utf-8"?>
<svg viewBox="0 0 512 512" xmlns="http://www.w3.org/2000/svg">
  <path d="M169.6 105.4c-3.25-1.9-7.109-2.219-10.55-1.094c-3.422 1.14-6.078 3.891-7.172 7.344L106.7 238.5L68.45 283.4c-4.203 4.887-3.594 12.19 1.266 16.38l16.28 14.11l-22.75 26.43c-1.5 1.75-2.312 3.937-2.312 6.218c0 2.28 .8281 4.467 2.312 6.218l28.11 32.62c1.734 2.016 4.219 3.156 6.812 3.156c2 0 3.953-.6718 5.547-1.969l26.37-22.69l14.17 16.44c4.203 4.859 11.61 5.469 16.52 1.219l44.8-38.33L361.7 294.8c3.453-1.062 6.203-3.719 7.375-7.141c1.141-3.438 .8125-7.25-1.141-10.48l-19.19-33.08l10.18-31.03L446.9 109.5c.5078-1.5.9687-3.656-.0156-5.594c-1-1.984-3.156-3.344-5.688-3.344h-34.06l-67.28-50.66c-1.844-1.375-4.125-2.047-6.5-1.828c-2.344.1094-4.5 1.156-6.094 2.875L289.1 90.91L258.9 100.7l-70.08-28.08L169.6 105.4zM126.9 360.4L70 290.5l-40.62 34.68C11.23 339.4 0 363.3 0 388.4v92.22C0 495.1 13.09 512 32 512h42.28c11.46 0 22.25-5.109 29.47-13.94l53.25-63.56L126.9 360.4z" style="fill: currentColor;"/>
</svg>
